<svg xmlns="http://www.w3.org/2000/svg" xmlns:xlink="http://www.w3.org/1999/xlink" version="1.1" x="0px" y="0px" viewBox="0 0 512 640" style="enable-background:new 0 0 512 512;" xml:space="preserve"><g><g><g><path d="M256,466L256,466c-8.284,0-15-6.716-15-15l0,0c0-8.284,6.716-15,15-15l0,0c8.284,0,15,6.716,15,15l0,0     C271,459.284,264.284,466,256,466z"/><g><path d="M351,493H161c-23.159,0-42-18.841-42-42V61c0-23.159,18.841-42,42-42h190c23.159,0,42,18.841,42,42v390      C393,474.159,374.159,493,351,493z M161,33c-15.439,0-28,12.561-28,28v390c0,15.439,12.561,28,28,28h190      c15.439,0,28-12.561,28-28V61c0-15.439-12.561-28-28-28H161z"/></g><g><path d="M200.447,212.241c-2.173,0-4.316-1.009-5.684-2.907c-2.261-3.136-1.551-7.511,1.584-9.772l40.559-29.24      c3.136-2.261,7.512-1.551,9.772,1.584c2.261,3.136,1.551,7.511-1.584,9.772l-40.559,29.24      C203.297,211.811,201.865,212.241,200.447,212.241z"/></g><g><path d="M191.006,253c-2.173,0-4.316-1.009-5.684-2.907c-2.261-3.136-1.551-7.511,1.584-9.772l73.006-52.633      c3.136-2.262,7.511-1.551,9.771,1.584c2.262,3.136,1.552,7.511-1.584,9.772l-73.006,52.633      C193.855,252.571,192.424,253,191.006,253z"/></g><path d="M291,186L291,186c-5.522,0-10-4.477-10-10l0,0c0-5.523,4.478-10,10-10l0,0c5.522,0,10,4.477,10,10l0,0     C301,181.523,296.522,186,291,186z"/><g><path d="M271,73h-30c-3.866,0-7-3.134-7-7s3.134-7,7-7h30c3.866,0,7,3.134,7,7S274.866,73,271,73z"/></g><g><path d="M351,423H161c-3.866,0-7-3.134-7-7s3.134-7,7-7h190c3.866,0,7,3.134,7,7S354.866,423,351,423z"/></g><g><path d="M351,103H161c-3.866,0-7-3.134-7-7s3.134-7,7-7h190c3.866,0,7,3.134,7,7S354.866,103,351,103z"/></g></g></g></g></svg>